<svg xmlns="http://www.w3.org/2000/svg" width="22" height="22" fill="none"><mask id="a" width="18" height="18" x="2" y="2" maskUnits="userSpaceOnUse" style="mask-type:luminance"><path fill="#fff" d="M20 2H2v18h18V2z"/></mask><g mask="url(#a)"><path fill="#000" d="M11 6.846a4.154 4.154 0 1 0 0 8.308 4.154 4.154 0 0 0 0-8.308zm0 6.923a2.77 2.77 0 1 1 0-5.538 2.77 2.77 0 0 1 0 5.538zM15.154 2H6.846A4.851 4.851 0 0 0 2 6.846v8.308A4.851 4.851 0 0 0 6.846 20h8.308A4.852 4.852 0 0 0 20 15.154V6.846A4.852 4.852 0 0 0 15.154 2zm3.461 13.154a3.461 3.461 0 0 1-3.461 3.461H6.846a3.461 3.461 0 0 1-3.461-3.461V6.846a3.462 3.462 0 0 1 3.461-3.461h8.308a3.461 3.461 0 0 1 3.461 3.461v8.308zM16.538 6.5a1.038 1.038 0 1 1-2.075 0 1.038 1.038 0 0 1 2.075 0z"/></g></svg>